{"title":"Amber 2014 Miniserie DVDrip English Klam","uid":10990406,"size":2548820193,"categoryP":"video","categoryS":"movies","magnet":"?xt=urn:btih:8959f15744c1068e8102f54f606ea3c6efcc3b1f&amp;dn=Amber+2014+Miniserie+DVDrip+English+Klam&amp;tr=udp%3A%2F%2Ftracker.openbittorrent.com%3A80&amp;tr=udp%3A%2F%2Fopen.demonii.com%3A1337&amp;tr=udp%3A%2F%2Ftracker.coppersurfer.tk%3A6969&amp;tr=udp%3A%2F%2Fexodus.desync.com%3A6969","seeders":1,"leechers":1,"uploader":"Klambake","files":-1,"time":1409999222,"description":"De verdwijning van de veertienjarige Amber Bailey is het begin van een twee jaar durende zoektocht die haar familie niet in de koude kleren gaat zitten. Naar mate de tijd verstrijkt komen er steeds meer afschuwelijke feiten aan het licht die steeds meer vragen oproepen. Wat is er gebeurd met Amber?\n\nThe disappearance of 14 year old Amber Bailey sets off a two-year search during which her family will go through unimaginable pressures...\n &lt;a href=&quot;\nhttp://www.imdb.com/title/tt2224645&quot; rel=&quot;nofollow&quot; target=&quot;_NEW&quot;&gt;\nhttp://www.imdb.com/title/tt2224645&lt;/a&gt;\t\n\n--------------------- Dutch Friends 4ever ---------------------\n---------------------------------------------------------------\n- Bezoek ook eens mijn vrienden op: &lt;a href=&quot; http://www.Film-Test.nl&quot; rel=&quot;nofollow&quot; target=&quot;_NEW&quot;&gt; http://www.Film-Test.nl&lt;/a&gt; --\n----- voor mijn Nederlandse Sync. ondertitels ---- en meer ----\n------- http://www.Film-Test.nl ---- Over Films en meer -------\n---------------------------------------------------------------\n &lt;a href=&quot;\nhttp://i.imgur.com/wWLNcy8.jpg&quot; rel=&quot;nofollow&quot; target=&quot;_NEW&quot;&gt;\nhttp://i.imgur.com/wWLNcy8.jpg&lt;/a&gt; &lt;a href=&quot;\nhttp://i.imgur.com/H76bNu1.jpg&quot; rel=&quot;nofollow&quot; target=&quot;_NEW&quot;&gt;\nhttp://i.imgur.com/H76bNu1.jpg&lt;/a&gt; &lt;a href=&quot;\nhttp://i.imgur.com/s0346hF.jpg&quot; rel=&quot;nofollow&quot; target=&quot;_NEW&quot;&gt;\nhttp://i.imgur.com/s0346hF.jpg&lt;/a&gt;\n\nGeneral:\n\nComplete name                            : AmberPart01.avi\nFormat                                   : AVI\nFormat/Info                              : Audio Video Interleave\nFile size                                : 627 MiB\nDuration                                 : 49mn 48s\nOverall bit rate                         : 1 760 Kbps\n\nVideo:\n\nFormat                                   : MPEG-4 Visual\nFormat profile                           : Simple@L3\nFormat settings, BVOP                    : No\nFormat settings, QPel                    : No\nFormat settings, GMC                     : No warppoints\nFormat settings, Matrix                  : Default (H.263)\nCodec ID                                 : XVID\nCodec ID/Hint                            : XviD\nDuration                                 : 49mn 48s\nBit rate                                 : 1 301 Kbps\nWidth                                    : 652 pixels\nHeight                                   : 352 pixels\nDisplay aspect ratio                     : 1.85:1\nFrame rate                               : 25.000 fps\nColor space                              : YUV\nChroma subsampling                       : 4:2:0\nBit depth                                : 8 bits\nScan type                                : Progressive\nCompression mode                         : Lossy\nBits/(Pixel*Frame)                       : 0.227\nStream size                              : 463 MiB (74%)\nWriting library                          : XviD 1.1.2 (UTC 2006-11-01)\n\nAudio:\n\nFormat                                   : AC-3\nFormat/Info                              : Audio Coding 3\nMode extension                           : CM (complete main)\nFormat settings, Endianness              : Big\nCodec ID                                 : 2000\nDuration                                 : 49mn 47s\nSource duration                          : 49mn 47s\nBit rate mode                            : Constant\nBit rate                                 : 448 Kbps\nChannel(s)                               : 6 channels\nChannel positions                        : Front: L C R, Side: L R, LFE\nSampling rate                            : 48.0 KHz\nBit depth                                : 16 bits\nCompression mode                         : Lossy\nStream size                              : 160 MiB (25%)\nAlignment                                : Aligned on interleaves\nInterleave, duration                     : 32 ms (0.80 video frame)\nInterleave, preload duration             : 64 ms\n\n","torrent":{"xt":"urn:btih:8959f15744c1068e8102f54f606ea3c6efcc3b1f","amp;dn":"Amber+2014+Miniserie+DVDrip+English+Klam","amp;tr":["udp%3A%2F%2Ftracker.openbittorrent.com%3A80","udp%3A%2F%2Fopen.demonii.com%3A1337","udp%3A%2F%2Ftracker.coppersurfer.tk%3A6969","udp%3A%2F%2Fexodus.desync.com%3A6969"],"infoHash":"8959f15744c1068e8102f54f606ea3c6efcc3b1f","infoHashBuffer":{"type":"Buffer","data":[137,89,241,87,68,193,6,142,129,2,245,79,96,110,163,198,239,204,59,31]},"announce":[],"urlList":[]}}